<svg version="1.1" xmlns="http://www.w3.org/2000/svg" data-icon="code" width="128" height="96" class="iconic iconic-code iconic-orientation-landscape" viewBox="0 0 128 96">
  <title>Code</title>
  <defs>
    <clipPath id="iconic-size-lg-code-clip-0">
      <path d="M90 10h38v58h-38z" />
    </clipPath>
    <clipPath id="iconic-size-lg-code-clip-1">
      <path d="M38 0h52v78h-52z" />
    </clipPath>
    <clipPath id="iconic-size-lg-code-clip-2">
      <path d="M0 10h38v58h-38z" />
    </clipPath>
    <clipPath id="iconic-size-md-code-clip-0">
      <path d="M22 3h10v17h-10z" />
    </clipPath>
    <clipPath id="iconic-size-md-code-clip-1">
      <path d="M11 0h11v23h-11z" />
    </clipPath>
    <clipPath id="iconic-size-md-code-clip-2">
      <path d="M0 3h10v17h-10z" />
    </clipPath>
    <clipPath id="iconic-size-sm-code-clip-0">
      <path d="M11 1h5v10h-5z" />
    </clipPath>
    <clipPath id="iconic-size-sm-code-clip-1">
      <path d="M5 0h5.5v12h-5.5z" />
    </clipPath>
    <clipPath id="iconic-size-sm-code-clip-2">
      <path d="M0 1h5v10h-5z" />
    </clipPath>
  </defs>
  <g data-width="128" data-height="78" class="iconic-lg" display="inline" transform="translate(0 9)" stroke="#000" stroke-width="8" stroke-linecap="square" stroke-miterlimit="10" fill="none">
    <path clip-path="url(#iconic-size-lg-code-clip-0)" class="iconic-code-bracket iconic-code-bracket-right iconic-element-stroke" d="M90 62l34-24-34-22" />
    <path clip-path="url(#iconic-size-lg-code-clip-1)" class="iconic-code-slash iconic-style-accent iconic-element-stroke" d="M80-4l-31 86" />
    <path clip-path="url(#iconic-size-lg-code-clip-2)" class="iconic-code-bracket iconic-code-bracket-left iconic-element-stroke" d="M38 62l-34-24 34-22" />
  </g>
  <g data-width="32" data-height="23" class="iconic-md" display="none" transform="scale(4)" stroke="#000" stroke-width="3" stroke-linecap="square" stroke-miterlimit="10" fill="none">
    <path clip-path="url(#iconic-size-md-code-clip-0)" class="iconic-code-bracket iconic-code-bracket-right iconic-element-stroke" d="M21.5 18.5l9-7-9-7" />
    <path clip-path="url(#iconic-size-md-code-clip-1)" class="iconic-code-slash iconic-style-accent iconic-element-stroke" d="M18.5.5l-5 22" />
    <path clip-path="url(#iconic-size-md-code-clip-2)" class="iconic-code-bracket iconic-code-bracket-left iconic-element-stroke" d="M10.5 4.5l-9 7 9 7" />
  </g>
  <g data-width="16" data-height="12" class="iconic-sm" display="none" transform="scale(8)" stroke="#000" stroke-width="2" stroke-linecap="square" stroke-miterlimit="10" fill="none">
    <path clip-path="url(#iconic-size-sm-code-clip-0)" class="iconic-code-bracket iconic-code-bracket-right iconic-element-stroke" d="M11 9l4-2.5v-1l-4-2.5" />
    <path clip-path="url(#iconic-size-sm-code-clip-1)" class="iconic-code-slash iconic-style-accent iconic-element-stroke" d="M9 0l-2 12" />
    <path clip-path="url(#iconic-size-sm-code-clip-2)" class="iconic-code-bracket iconic-code-bracket-left iconic-element-stroke" d="M5 9l-4-2.5v-1l4-2.5" />
  </g>
</svg>