<svg version="1.1" xmlns="http://www.w3.org/2000/svg" data-icon="double-quote-alt-left" width="128" height="112" class="iconic iconic-double-quote-alt-left iconic-orientation-landscape" viewBox="0 0 128 112">
  <title>Double Quote Alt Left</title>
  <g data-width="128" data-height="112" class="iconic-lg" display="inline">
    <path stroke="#000" stroke-width="16" stroke-miterlimit="10" d="M8 56c0-26.5 21.5-48 48-48" class="iconic-double-quote-alt-left-left iconic-double-quote-alt-left-curl iconic-element-stroke" fill="none" />
    <path class="iconic-double-quote-alt-left-left iconic-double-quote-alt-left-block iconic-element-fill" d="M0 56h56v56h-56z" />
    <path stroke="#000" stroke-width="16" stroke-miterlimit="10" d="M80 56c0-26.5 21.5-48 48-48" class="iconic-double-quote-alt-left-right iconic-double-quote-alt-left-curl iconic-element-stroke" fill="none" />
    <path class="iconic-double-quote-alt-left-right iconic-double-quote-alt-left-block iconic-element-fill" d="M72 56h56v56h-56z" />
  </g>
  <g data-width="32" data-height="28" class="iconic-md" display="none" transform="scale(4)">
    <path stroke="#000" stroke-width="5" stroke-miterlimit="10" d="M2.5 14c0-6.4 5.1-11.5 11.5-11.5" class="iconic-double-quote-alt-left-left iconic-double-quote-alt-left-curl iconic-element-stroke" fill="none" />
    <path class="iconic-double-quote-alt-left-left iconic-double-quote-alt-left-block iconic-element-fill" d="M0 14h14v14h-14z" />
    <path stroke="#000" stroke-width="5" stroke-miterlimit="10" d="M20.5 14c0-6.4 5.1-11.5 11.5-11.5" class="iconic-double-quote-alt-left-right iconic-double-quote-alt-left-curl iconic-element-stroke" fill="none" />
    <path class="iconic-double-quote-alt-left-right iconic-double-quote-alt-left-block iconic-element-fill" d="M18 14h14v14h-14z" />
  </g>
  <g data-width="16" data-height="14" class="iconic-sm" display="none" transform="scale(8)">
    <path stroke="#000" stroke-width="3" stroke-miterlimit="10" d="M1.5 7c0-3 2.5-5.5 5.5-5.5" class="iconic-double-quote-alt-left-left iconic-double-quote-alt-left-curl iconic-element-stroke" fill="none" />
    <path class="iconic-double-quote-alt-left-left iconic-double-quote-alt-left-block iconic-element-fill" d="M0 7h7v7h-7z" />
    <path stroke="#000" stroke-width="3" stroke-miterlimit="10" d="M10.5 7c0-3 2.5-5.5 5.5-5.5" class="iconic-double-quote-alt-left-right iconic-double-quote-alt-left-curl iconic-element-stroke" fill="none" />
    <path class="iconic-double-quote-alt-left-right iconic-double-quote-alt-left-block iconic-element-fill" d="M9 7h7v7h-7z" />
  </g>
</svg>