<svg version="1.1" xmlns="http://www.w3.org/2000/svg" data-icon="fullscreen-enter" width="128" height="128" class="iconic iconic-fullscreen-enter iconic-orientation-square" viewBox="0 0 128 128">
  <title>Fullscreen Enter</title>
  <g data-width="128" data-height="127" class="iconic-lg" display="inline">
    <path stroke="#000" stroke-width="8" stroke-miterlimit="10" class="iconic-fullscreen-enter-line iconic-fullscreen-enter-line-bottom iconic-element-stroke" d="M119 119l-45-45" fill="none" />
    <path d="M127.7 125.5l-5.3-24.1c-.2-.8-.8-1-1.4-.4l-19.9 19.9c-.6.6-.4 1.2.4 1.3l25 4.5c.8.2 1.4-.4 1.2-1.2z" class="iconic-fullscreen-enter-arrowhead iconic-fullscreen-enter-arrowhead-bottom iconic-element-fill" />
    <path stroke="#000" stroke-width="8" stroke-miterlimit="10" class="iconic-fullscreen-enter-line iconic-fullscreen-enter-line-top iconic-element-stroke" d="M11 11l43 43" fill="none" />
    <path d="M.3 1.5l5.4 25.1c.2.8.8 1 1.4.4l19.8-19.9c.6-.6.4-1.2-.4-1.4l-25-5.4c-.8-.2-1.4.4-1.2 1.2z" class="iconic-fullscreen-enter-arrowhead iconic-fullscreen-enter-arrowhead-top iconic-element-fill" />
  </g>
  <g data-width="32" data-height="32" class="iconic-md" display="none" transform="scale(4)">
    <path stroke="#000" stroke-width="3" stroke-miterlimit="10" class="iconic-fullscreen-enter-line iconic-fullscreen-enter-line-bottom iconic-element-stroke" d="M29 29l-10-10" fill="none" />
    <path d="M31.5 31.9l-6-.9c-.3 0-.3-.2-.1-.4l5.3-5.3c.2-.2.4-.1.4.1l.9 6c0 .4-.2.6-.5.5z" class="iconic-fullscreen-enter-arrowhead iconic-fullscreen-enter-arrowhead-bottom iconic-element-fill" />
    <path stroke="#000" stroke-width="3" stroke-miterlimit="10" class="iconic-fullscreen-enter-line iconic-fullscreen-enter-line-top iconic-element-stroke" d="M3 3l10 10" fill="none" />
    <path d="M.5.1l6 .9c.3 0 .3.2.1.4l-5.2 5.2c-.2.2-.4.2-.5-.1l-.9-6c0-.3.2-.5.5-.4z" class="iconic-fullscreen-enter-arrowhead iconic-fullscreen-enter-arrowhead-top iconic-element-fill" />
  </g>
  <g data-width="16" data-height="16" class="iconic-sm" display="none" transform="scale(8)">
    <path stroke="#000" stroke-width="2" stroke-miterlimit="10" class="iconic-fullscreen-enter-line iconic-fullscreen-enter-line-bottom iconic-element-stroke" d="M13 13l-3-3" fill="none" />
    <path class="iconic-fullscreen-enter-arrowhead iconic-fullscreen-enter-arrowhead-bottom iconic-element-fill" d="M16 16v-6l-6 6z" />
    <path stroke="#000" stroke-width="2" stroke-miterlimit="10" class="iconic-fullscreen-enter-line iconic-fullscreen-enter-line-top iconic-element-stroke" d="M3 3l3 3" fill="none" />
    <path class="iconic-fullscreen-enter-arrowhead iconic-fullscreen-enter-arrowhead-top iconic-element-fill" d="M0 0v6l6-6z" />
  </g>
</svg>