<svg version="1.1" xmlns="http://www.w3.org/2000/svg" data-icon="fullscreen-exit" width="128" height="128" class="iconic iconic-fullscreen-exit iconic-orientation-square" viewBox="0 0 128 128">
  <title>Fullscreen Exit</title>
  <g data-width="128" data-height="128" class="iconic-lg" display="inline">
    <path stroke="#000" stroke-width="8" stroke-linecap="square" stroke-miterlimit="10" class="iconic-fullscreen-exit-line iconic-fullscreen-exit-line-bottom iconic-element-stroke" d="M83.5 83.5l38.5 38.5" fill="none" />
    <path d="M74.3 75.5l5.4 25.1c.2.8.8 1 1.4.4l19.9-19.9c.6-.6.4-1.2-.4-1.4l-25.1-5.4c-.8-.2-1.4.4-1.2 1.2z" class="iconic-fullscreen-exit-arrowhead iconic-fullscreen-exit-arrowhead-bottom iconic-element-fill" />
    <path stroke="#000" stroke-width="8" stroke-linecap="square" stroke-miterlimit="10" class="iconic-fullscreen-exit-line iconic-fullscreen-exit-line-top iconic-element-stroke" d="M44.5 44.5l-38.5-38.5" fill="none" />
    <path d="M53.7 52.5l-5.4-25.1c-.2-.8-.8-1-1.4-.4l-19.8 19.9c-.6.6-.4 1.2.4 1.4l25.1 5.4c.7.2 1.3-.4 1.1-1.2z" class="iconic-fullscreen-exit-arrowhead iconic-fullscreen-exit-arrowhead-top iconic-element-fill" />
  </g>
  <g data-width="32" data-height="32" class="iconic-md" display="none" transform="scale(4)">
    <path stroke="#000" stroke-width="3" stroke-miterlimit="10" class="iconic-fullscreen-exit-line iconic-fullscreen-exit-line-bottom iconic-element-stroke" d="M21 21l10 10" fill="none" />
    <path d="M18.5 18.1l6 .9c.3 0 .3.2.1.4l-5.3 5.3c-.2.2-.4.1-.4-.1l-.9-6c0-.4.2-.6.5-.5z" class="iconic-fullscreen-exit-arrowhead iconic-fullscreen-exit-arrowhead-bottom iconic-element-fill" />
    <path stroke="#000" stroke-width="3" stroke-miterlimit="10" class="iconic-fullscreen-exit-line iconic-fullscreen-exit-line-top iconic-element-stroke" d="M11 11l-10-10" fill="none" />
    <path d="M13.5 13.9l-6-.9c-.3 0-.3-.2-.1-.4l5.3-5.3c.2-.2.4-.1.4.1l.9 6c0 .4-.2.6-.5.5z" class="iconic-fullscreen-exit-arrowhead iconic-fullscreen-exit-arrowhead-top iconic-element-fill" />
  </g>
  <g data-width="16" data-height="16" class="iconic-sm" display="none" transform="scale(8)">
    <path stroke="#000" stroke-width="2" stroke-miterlimit="10" class="iconic-fullscreen-exit-line iconic-fullscreen-exit-line-bottom iconic-element-stroke" d="M12 12.1l3 2.9" fill="none" />
    <path class="iconic-fullscreen-exit-arrowhead iconic-fullscreen-exit-arrowhead-bottom iconic-element-fill" d="M10 10v6l6-6z" />
    <path stroke="#000" stroke-width="2" stroke-miterlimit="10" class="iconic-fullscreen-exit-line iconic-fullscreen-exit-line-top iconic-element-stroke" d="M4 4l-3-3" fill="none" />
    <path class="iconic-fullscreen-exit-arrowhead iconic-fullscreen-exit-arrowhead-top iconic-element-fill" d="M6 6v-6l-6 6z" />
  </g>
</svg>