<svg version="1.1" xmlns="http://www.w3.org/2000/svg" data-icon="sign-out" width="128" height="128" class="iconic iconic-sign-out iconic-orientation-square" viewBox="0 0 128 128">
  <title>Sign Out</title>
  <g data-width="128" data-height="128" class="iconic-lg" display="inline">
    <path stroke="#000" stroke-width="8" stroke-linecap="square" stroke-miterlimit="10" class="iconic-sign-out-entrance iconic-style-accent iconic-element-stroke" d="M46 4h78v120h-78" fill="none" />
    <path stroke="#000" stroke-width="8" stroke-linecap="square" stroke-miterlimit="10" class="iconic-sign-out-arrow iconic-sign-out-arrow-line iconic-element-stroke" d="M88 64h-76" fill="none" />
    <path d="M1.3 64.8l21.4 12.5c.7.4 1.3.1 1.3-.7v-25c0-.8-.6-1.2-1.3-.7l-21.4 12.3c-.7.5-.7 1.1 0 1.6z" class="iconic-sign-out-arrow iconic-sign-out-arrow-head iconic-element-fill" />
  </g>
  <g data-width="32" data-height="31" class="iconic-md" display="none" transform="scale(4)">
    <path stroke="#000" stroke-width="3" stroke-linecap="square" stroke-miterlimit="10" class="iconic-sign-out-entrance iconic-style-accent iconic-element-stroke" d="M12.5 1.5h18v28h-18" fill="none" />
    <path stroke="#000" stroke-width="3" stroke-linecap="square" stroke-miterlimit="10" class="iconic-sign-out-arrow iconic-sign-out-arrow-line iconic-element-stroke" d="M19.5 15.5h-14.5" fill="none" />
    <path d="M.4 15.2l5.2-3.9c.2-.2.4-.1.4.2v8c0 .3-.2.4-.4.2l-5.2-3.9c-.2-.2-.2-.4 0-.6z" class="iconic-sign-out-arrow iconic-sign-out-arrow-head iconic-element-fill" />
  </g>
  <g data-width="16" data-height="16" class="iconic-sm" display="none" transform="scale(8)">
    <path stroke="#000" stroke-width="2" stroke-linecap="square" stroke-miterlimit="10" class="iconic-sign-out-entrance iconic-style-accent iconic-element-stroke" d="M7 1h8v14h-8" fill="none" />
    <path stroke="#000" stroke-width="2" stroke-linecap="square" stroke-miterlimit="10" class="iconic-sign-out-arrow iconic-sign-out-arrow-line iconic-element-stroke" d="M11 8h-9" fill="none" />
    <path class="iconic-sign-out-arrow iconic-sign-out-arrow-head iconic-element-fill" d="M0 8l4 4v-8z" />
  </g>
</svg>