<svg version="1.1" xmlns="http://www.w3.org/2000/svg" data-icon="undo" width="128" height="96" class="iconic iconic-undo iconic-orientation-landscape" viewBox="0 0 128 96">
  <title>Undo</title>
  <g data-width="128" data-height="96" class="iconic-lg" display="inline">
    <path d="M30 59c0-27.1 21.9-49 49-49s49 21.9 49 49c0-32.6-26.4-59-59-59s-59 26.4-59 59v11h20v-11z" class="iconic-undo-stem iconic-element-fill" />
    <path d="M19.2 94.7l-18.4-29.4c-.4-.7-.1-1.3.7-1.3h37c.8 0 1.1.6.7 1.3l-18.4 29.4c-.4.7-1.2.7-1.6 0z" class="iconic-undo-arrowhead iconic-element-fill" />
  </g>
  <g data-width="31.9" data-height="24" class="iconic-md" display="none" transform="scale(4)">
    <path d="M9 14.5c0-6.4 5.1-11.5 11.5-11.5 6 0 10.9 4.7 11.4 10.5-.6-7.5-6.8-13.5-14.4-13.5-8 0-14.5 6.5-14.5 14.5v2.5h6v-2.5z" class="iconic-undo-stem iconic-element-fill" />
    <path d="M6.3 23.6l5.4-7.2c.2-.2.1-.4-.2-.4h-11c-.3 0-.4.2-.2.4l5.4 7.2c.2.2.4.2.6 0z" class="iconic-undo-arrowhead iconic-element-fill" />
  </g>
  <g data-width="16" data-height="12" class="iconic-sm" display="none" transform="scale(8)">
    <path d="M2 9v-2c0-3.9 3.1-7 7-7s7 3.1 7 7c0-2.8-2.2-5-5-5s-5 2.2-5 5v2h-4z" class="iconic-undo-stem iconic-element-fill" />
    <path class="iconic-undo-arrowhead iconic-element-fill" d="M0 8l4 4 4-4z" />
  </g>
</svg>